Coordinates
version=1
nRows=17
nColumns=40
inDegrees=yes

Units are S.I. units (second, meters, Newtons, ...)
Angles are in degrees.

endheader
time	pelvis_tilt	pelvis_list	pelvis_rotation	pelvis_tx	pelvis_ty	pelvis_tz	hip_flexion_r	hip_adduction_r	hip_rotation_r	knee_angle_r	knee_angle_r_beta	ankle_angle_r	subtalar_angle_r	mtp_angle_r	hip_flexion_l	hip_adduction_l	hip_rotation_l	knee_angle_l	knee_angle_l_beta	ankle_angle_l	subtalar_angle_l	mtp_angle_l	lumbar_extension	lumbar_bending	lumbar_rotation	arm_flex_r	arm_add_r	arm_rot_r	elbow_flex_r	pro_sup_r	wrist_flex_r	wrist_dev_r	arm_flex_l	arm_add_l	arm_rot_l	elbow_flex_l	pro_sup_l	wrist_flex_l	wrist_dev_l
     11.43000000	     -2.52452791	     -5.47633152	      5.37502689	      1.04000242	      0.93144351	      0.49052415	     10.57408811	      2.92129977	    -14.55843637	     16.22189347	     16.22189347	     10.53575033	      2.65372446	     -4.28189412	     29.48039873	    -13.38006816	      3.25486788	     65.18560535	     65.18560535	      5.12621970	    -15.28322102	      5.76063073	     -9.61359926	      4.12934057	      2.57725865	     28.67469398	    -23.72964129	     -6.25093962	     91.39656034	     45.79635663	      0.00000000	      0.00000000	     -2.00056130	    -11.64103560	     -8.89813200	     37.88293873	     45.57530036	      0.00000000	      0.00000000
     11.44292857	     -2.70159763	     -5.19641146	      5.75913611	      1.03807547	      0.93207133	      0.49101317	     10.10598965	      2.72971302	    -14.86956193	     15.50329936	     15.50329936	     10.53051124	      2.87130469	     -4.23698341	     30.64070219	    -12.88849587	      3.14373934	     63.45482521	     63.45482521	      5.36296258	    -16.24835660	      6.02037756	     -9.71780646	      3.90300788	      2.70744479	     30.13957364	    -23.54133924	     -6.25270390	     92.30078669	     45.76839017	      0.00000000	      0.00000000	     -2.34908530	    -11.39882348	     -8.76359735	     37.23660084	     45.56086412	      0.00000000	      0.00000000
     11.45585714	     -2.85947401	     -5.01556706	      6.10775394	      1.03618935	      0.93255609	      0.49160767	      9.68899232	      2.66187713	    -15.09430950	     14.89741537	     14.89741537	     10.51833955	      2.93010781	     -4.28640828	     31.67455907	    -12.55167274	      2.97604717	     61.52299464	     61.52299464	      5.70316330	    -16.89144333	      6.29460011	     -9.84239584	      3.74800464	      2.79744724	     31.71417760	    -23.37408118	     -6.15633657	     93.20504447	     45.73597185	      0.00000000	      0.00000000	     -2.68975922	    -11.10213023	     -8.56812427	     36.39961004	     45.54162148	      0.00000000	      0.00000000
     11.46878571	     -3.03159418	     -4.85278200	      6.45540960	      1.03430263	      0.93296823	      0.49220276	      9.32047368	      2.61401708	    -15.22131217	     14.33446332	     14.33446332	     10.49725737	      2.87363724	     -4.35431451	     32.56580338	    -12.22511315	      2.78393454	     59.27443964	     59.27443964	      6.04935155	    -17.34496169	      6.76851569	     -9.96484457	      3.60327609	      2.97683923	     33.23834702	    -23.28169889	     -6.04203889	     93.94788377	     45.70833831	      0.00000000	      0.00000000	     -2.99923634	    -10.82925635	     -8.37257514	     35.63224535	     45.52236256	      0.00000000	      0.00000000
     11.48171429	     -3.32269839	     -4.71425526	      6.76336798	      1.03237624	      0.93303734	      0.49267037	      9.17669282	      2.54864860	    -15.34832030	     13.94411525	     13.94411525	     10.56272664	      2.76612051	     -4.37169991	     33.46146684	    -11.93773636	      2.46944443	     56.78275510	     56.78275510	      6.43321707	    -17.50070906	      7.13916051	     -9.93064252	      3.46352351	      3.35325689	     34.62701635	    -23.41199777	     -6.11054177	     94.45984890	     45.69808846	      0.00000000	      0.00000000	     -3.32401760	    -10.53721297	     -8.26445680	     35.28093003	     45.50709679	      0.00000000	      0.00000000
     11.49464286	     -3.57132754	     -4.47381042	      7.07828658	      1.03056233	      0.93323268	      0.49293082	      8.90138329	      2.38985971	    -15.41378372	     13.41993131	     13.41993131	     10.60376394	      2.65265695	     -4.37392247	     34.04518934	    -11.45457441	      2.15389946	     53.85824820	     53.85824820	      6.72355565	    -17.67870908	      7.69216067	     -9.97174959	      3.21983847	      3.53896970	     36.13387186	    -23.36768704	     -6.07511068	     95.13160806	     45.67945755	      0.00000000	      0.00000000	     -3.63826657	    -10.24756833	     -8.10964248	     34.78621445	     45.48647900	      0.00000000	      0.00000000
     11.50757143	     -3.67646528	     -4.42475165	      7.40299334	      1.02889311	      0.93336087	      0.49321936	      8.55922489	      2.43790797	    -15.55254092	     13.03904176	     13.03904176	     10.61346260	      2.51042229	     -4.47363182	     34.37097435	    -11.08982866	      2.09319136	     50.67649510	     50.67649510	      7.15133548	    -17.76132777	      8.28238608	    -10.14037559	      3.18163001	      3.60182052	     37.28856177	    -23.04939005	     -5.77996316	     95.70050791	     45.65253925	      0.00000000	      0.00000000	     -3.94307981	    -10.16393020	     -7.92926314	     34.07757576	     45.46497015	      0.00000000	      0.00000000
     11.52050000	     -3.96207525	     -4.36466424	      7.70861379	      1.02713144	      0.93310427	      0.49323291	      8.46915771	      2.41321584	    -15.65101631	     12.75857853	     12.75857853	     10.69054346	      2.37327089	     -4.57514896	     34.72880866	    -10.65761839	      1.99379146	     47.23514655	     47.23514655	      7.55568025	    -17.47246807	      8.72194740	    -10.08105900	      3.13097471	      3.78885585	     38.46218221	    -22.98934591	     -5.63325968	     96.10207307	     45.63732696	      0.00000000	      0.00000000	     -4.20295004	     -9.93762914	     -7.78310975	     33.62098274	     45.44607397	      0.00000000	      0.00000000
     11.53342857	     -4.16096522	     -4.26959397	      7.99296367	      1.02549577	      0.93293648	      0.49311558	      8.29748157	      2.34665004	    -15.75676335	     12.52780529	     12.52780529	     10.76446597	      2.20702187	     -4.73160200	     34.76486488	    -10.15054109	      1.94822230	     43.48926889	     43.48926889	      7.81191882	    -17.10850490	      9.14413229	    -10.17045472	      3.05550934	      3.84485428	     39.54732490	    -22.73280432	     -5.27686537	     96.44813061	     45.61526418	      0.00000000	      0.00000000	     -4.46036695	     -9.79990082	     -7.59192951	     32.98176094	     45.42332682	      0.00000000	      0.00000000
     11.54635714	     -4.46270390	     -4.29073409	      8.26127388	      1.02386696	      0.93235741	      0.49284332	      8.31127527	      2.35895788	    -15.89331371	     12.40854887	     12.40854887	     10.88672646	      2.04892146	     -4.87036675	     34.85829105	     -9.72026989	      2.00727094	     39.74372552	     39.74372552	      8.12608609	    -16.32908108	      9.45232769	    -10.09044977	      3.09684923	      4.01309198	     40.50073818	    -22.63411025	     -5.07288289	     96.67328527	     45.60308470	      0.00000000	      0.00000000	     -4.67745011	     -9.58789525	     -7.45930527	     32.60730550	     45.40618631	      0.00000000	      0.00000000
     11.55928571	     -4.63358687	     -4.26191600	      8.51737023	      1.02240609	      0.93193664	      0.49243032	      8.17112177	      2.31910742	    -16.04214749	     12.31603332	     12.31603332	     10.94665955	      1.96874021	     -5.27462325	     34.55772997	     -9.21395091	      2.14527353	     35.76934860	     35.76934860	      7.94348833	    -15.60029282	      8.98547194	    -10.11448031	      3.11640362	      3.69557098	     41.83685977	    -22.04813985	     -3.90096027	     96.25188011	     45.56929804	      0.00000000	      0.00000000	     -4.87570308	     -9.50305285	     -6.99190615	     31.25210099	     45.36430883	      0.00000000	      0.00000000
     11.57221429	     -4.84317285	     -4.29424116	      8.69965931	      1.02107475	      0.93128916	      0.49203347	      8.14273662	      2.33030882	    -16.09630361	     12.35422047	     12.35422047	     11.19250214	      1.80965743	     -5.43577854	     34.29255115	     -8.85590468	      2.15442450	     32.07870792	     32.07870792	      8.11801107	    -14.24677959	      9.26568532	    -10.09898385	      3.12815384	      3.92314281	     42.41616597	    -21.94059170	     -3.73808746	     96.27264735	     45.56212315	      0.00000000	      0.00000000	     -5.07699409	     -9.36933668	     -6.91858561	     31.09987382	     45.35742678	      0.00000000	      0.00000000
     11.58514286	     -5.04180174	     -4.37077789	      8.85652725	      1.01986728	      0.93054615	      0.49149139	      8.10993025	      2.37688944	    -16.17230729	     12.41555111	     12.41555111	     11.41473601	      1.70037717	     -5.56814882	     34.00176905	     -8.54322132	      2.20986169	     28.70966344	     28.70966344	      8.24111816	    -12.77898903	      9.57132404	    -10.07022069	      3.19251215	      4.09664595	     42.96250226	    -21.71095737	     -3.49872873	     96.24271770	     45.55435302	      0.00000000	      0.00000000	     -5.28187763	     -9.23570399	     -6.82903747	     30.88901654	     45.34752874	      0.00000000	      0.00000000
     11.59807143	     -5.22157545	     -4.61435048	      9.02050955	      1.01878359	      0.92965185	      0.49089591	      8.09927112	      2.59417679	    -16.30489477	     12.52173424	     12.52173424	     11.67010110	      1.61029050	     -5.70697122	     33.82928776	     -8.39414179	      2.37477112	     25.91506186	     25.91506186	      8.25168770	    -11.35141406	      9.92451292	     -9.99920058	      3.47547138	      4.29082683	     43.37268966	    -21.50813742	     -3.30439879	     96.16399966	     45.55024324	      0.00000000	      0.00000000	     -5.44907270	     -9.07444033	     -6.75449992	     30.73115929	     45.33795696	      0.00000000	      0.00000000
     11.61100000	     -5.27772780	     -4.57621767	      9.05989350	      1.01807068	      0.92911437	      0.49018972	      7.86498404	      2.52614424	    -16.29731851	     12.60335876	     12.60335876	     11.98766914	      1.63761414	     -5.78275760	     33.30618220	     -8.12222097	      2.03466201	     23.39334650	     23.39334650	      8.23958676	     -9.77755312	     10.19644458	    -10.07526367	      3.38097637	      4.32619907	     43.69494056	    -21.03712171	     -2.84041555	     95.69136628	     45.54707106	      0.00000000	      0.00000000	     -5.64261903	     -9.06081299	     -6.61775638	     30.37353170	     45.32385404	      0.00000000	      0.00000000
     11.62392857	     -5.32605096	     -4.72644336	      9.11616515	      1.01747605	      0.92842514	      0.48938667	      7.64515735	      2.65099141	    -16.40231410	     12.68882531	     12.68882531	     12.34302615	      1.80095442	     -5.73216890	     32.99475750	     -8.04075184	      1.72369283	     21.66087692	     21.66087692	      8.13142809	     -8.33676579	     10.24197758	    -10.06018069	      3.53728881	      4.21600446	     44.15027324	    -20.42488432	     -2.19947039	     94.64532908	     45.55288042	      0.00000000	      0.00000000	     -5.82631724	     -8.99550252	     -6.38371634	     29.92654450	     45.30303872	      0.00000000	      0.00000000
     11.63685714	     -5.45628596	     -5.02241680	      9.13515551	      1.01701543	      0.92749064	      0.48855305	      7.53005724	      2.92686185	    -16.44087934	     12.76968734	     12.76968734	     12.63903112	      1.81869849	     -5.82786436	     32.93682897	     -8.05449801	      1.68337368	     20.66019924	     20.66019924	      7.92704177	     -7.68687925	     10.42116905	     -9.90589786	      3.85993801	      4.46465098	     44.03369411	    -20.13899279	     -2.00076331	     94.41331314	     45.55182740	      0.00000000	      0.00000000	     -5.92857962	     -8.90245239	     -6.34252337	     29.86802945	     45.29789375	      0.00000000	      0.00000000
